<svg id="visual" viewBox="0 0 900 600" width="900" height="600" xmlns="http://www.w3.org/2000/svg" xmlns:xlink="http://www.w3.org/1999/xlink" version="1.1"><g transform="translate(411.89474176086554 319.3784338861252)"><path d="M136.3 -143.5C183.1 -123.2 231.9 -86.4 247 -38C262.2 10.3 243.7 70.2 204.2 98.6C164.8 127.1 104.5 124.1 55.4 134.1C6.4 144.1 -31.4 167 -54.9 156.1C-78.5 145.3 -88 100.8 -104.9 64.1C-121.7 27.5 -146.1 -1.3 -162 -49C-177.9 -96.6 -185.3 -163.2 -157 -186.7C-128.6 -210.2 -64.3 -190.6 -9.7 -179C44.8 -167.4 89.6 -163.7 136.3 -143.5" fill="#001122"></path></g></svg>